<svg xmlns="http://www.w3.org/2000/svg" width="28.963" height="36.95" viewBox="0 0 28.963 36.95">
  <g id="スタンダードなゴミ箱アイコン" transform="translate(-55.332)">
    <path id="Path_147" data-name="Path 147" d="M64.8,153.046a3.741,3.741,0,0,0,3.727,3.411H85.238a3.741,3.741,0,0,0,3.727-3.411L90.815,128.8H62.952Zm17.363-17.529a.769.769,0,0,1,1.535.093L82.969,150.2a.769.769,0,0,1-1.535-.093Zm-6.05.046a.769.769,0,0,1,1.538,0v14.6a.769.769,0,0,1-1.538,0Zm-5.327-.767a.769.769,0,0,1,.814.721l.732,14.595a.769.769,0,0,1-1.535.093l-.732-14.595A.769.769,0,0,1,70.788,134.8Z" transform="translate(-7.07 -119.508)"/>
    <path id="Path_148" data-name="Path 148" d="M83.029,4.656s-2.459-.409-3.128-.612c-.6-.182-5.831-.979-5.831-.979l-.2-1.393A1.9,1.9,0,0,0,72.025,0H67.6a1.9,1.9,0,0,0-1.849,1.672l-.2,1.393s-5.23.8-5.83.979c-.668.2-3.129.612-3.129.612a1.769,1.769,0,0,0-1.266,1.722V7.961H84.3V6.378A1.769,1.769,0,0,0,83.029,4.656ZM71.28,2.8H68.347a.471.471,0,0,1,0-.943H71.28a.471.471,0,0,1,0,.943Z" transform="translate(0)"/>
  </g>
</svg>
